<svg width="96" height="96" viewBox="0 0 96 96" fill="none" xmlns="http://www.w3.org/2000/svg">
  <rect width="96" height="96" rx="24" fill="#0F172A"/>
  <path d="M53.4 15.8C46 16.9 40.1 22.8 39 30.2C38.3 34.7 39.6 39.1 42.1 42.5L31.3 53.3L25.1 47.1L18.7 53.5L42.5 77.3L48.9 70.9L42.7 64.7L53.5 53.9C56.9 56.4 61.3 57.7 65.8 57C73.2 55.9 79.1 50 80.2 42.6C82.6 26.7 69.3 13.4 53.4 15.8Z" fill="#F59E0B"/>
  <circle cx="60" cy="36" r="12" fill="#2563EB"/>
  <path d="M53.5 29.4C57.5 33.4 62.5 38.4 66.5 42.4" stroke="#E2E8F0" stroke-width="2" stroke-linecap="round"/>
  <path d="M57.3 27.4L55.3 29.4M61.8 29.3L59.8 31.3M64.7 32.2L62.7 34.2M67 36.4L65 38.4M68.2 40.7L66.2 42.7" stroke="#E2E8F0" stroke-width="1.4" stroke-linecap="round"/>
</svg>
